<svg width="82" height="16" fill="none" xmlns="http://www.w3.org/2000/svg"><path d="M16.021 8.046l3.915 3.915-3.915 3.914-3.914-3.915 3.914-3.914z" fill="#BC4749"/><path d="M8.188 8.042l3.913 3.913-3.913 3.913-3.912-3.913 3.912-3.913z" fill="#161616"/><path fill="#BC4749" d="M12.112 4.135l3.918 3.918-3.918 3.918-3.918-3.918z"/><path fill="#BC4749" d="M4.283 4.135L8.2 8.053 4.283 11.97.365 8.053z"/><path d="M16.025.217l3.918 3.918-3.918 3.918-3.918-3.918L16.025.217z" fill="#fff"/><path d="M8.196.217l3.918 3.918-3.918 3.918-3.918-3.918L8.196.217zM19.94 4.131l3.918 3.918-3.918 3.918-3.918-3.918z" fill="#BC4749"/><path d="M12.112 4.131L16.03 8.05l-3.918 3.918L8.194 8.05l3.918-3.918z" fill="#BC4749"/><path d="M27.879 5.673V4.222h6.836v1.45h-2.548v6.874h-1.74V5.673H27.88zm9.87 6.995c-.643 0-1.195-.13-1.659-.39a2.672 2.672 0 01-1.065-1.114c-.249-.482-.374-1.053-.374-1.711 0-.642.125-1.206.374-1.691.25-.485.6-.863 1.053-1.134.455-.271.99-.407 1.601-.407.412 0 .796.067 1.15.2.358.13.67.326.936.589.268.263.477.593.626.992.149.395.223.859.223 1.39v.475h-5.272V8.794h3.642c0-.249-.054-.47-.162-.662a1.165 1.165 0 00-.452-.451 1.287 1.287 0 00-.662-.167c-.263 0-.496.06-.7.183-.2.12-.357.28-.47.484-.114.2-.173.424-.175.67v1.02c0 .31.056.576.17.801.117.225.28.398.492.52.212.122.462.183.752.183.192 0 .369-.027.529-.081a1.06 1.06 0 00.67-.642l1.602.105a2.191 2.191 0 01-.5 1.008 2.51 2.51 0 01-.968.667c-.393.157-.846.236-1.361.236zm9.19-4.585l-1.586.098a.82.82 0 00-.174-.366.928.928 0 00-.354-.264 1.201 1.201 0 00-.516-.102c-.268 0-.495.057-.679.17-.184.112-.276.26-.276.448 0 .149.06.275.178.378.12.103.324.185.614.248l1.13.227c.607.125 1.06.325 1.358.602.298.276.447.64.447 1.09 0 .408-.12.767-.362 1.076-.238.31-.566.55-.983.724-.415.17-.893.256-1.435.256-.827 0-1.485-.172-1.976-.516a2.01 2.01 0 01-.857-1.415l1.703-.09a.875.875 0 00.374.578c.197.13.45.195.76.195.303 0 .547-.058.731-.175.187-.119.282-.272.285-.46a.478.478 0 00-.2-.385c-.13-.103-.33-.182-.6-.236l-1.082-.215c-.61-.122-1.063-.334-1.362-.634-.295-.301-.443-.685-.443-1.15 0-.402.109-.747.325-1.037.22-.29.528-.514.923-.67.399-.158.865-.237 1.398-.237.789 0 1.41.167 1.862.5.455.334.72.787.797 1.362zm4.553-1.78v1.3h-3.76v-1.3h3.76zm-2.906-1.496h1.731v5.82c0 .16.025.285.074.374a.404.404 0 00.203.183.84.84 0 00.309.053c.081 0 .162-.007.244-.02.08-.017.143-.029.187-.037l.272 1.289a4.917 4.917 0 01-.366.093 2.94 2.94 0 01-.573.07 2.646 2.646 0 01-1.098-.167 1.532 1.532 0 01-.727-.594c-.173-.268-.259-.607-.256-1.016V4.807zm6.398.866V4.222h6.837v1.45h-2.548v6.874h-1.74V5.673h-2.549zm8.861 6.99c-.398 0-.753-.068-1.064-.207a1.714 1.714 0 01-.74-.621c-.18-.277-.269-.62-.269-1.033 0-.347.064-.638.192-.874.127-.235.3-.425.52-.569.22-.143.468-.252.748-.325.281-.073.577-.125.886-.154.363-.038.656-.074.878-.106.222-.035.383-.087.483-.154a.34.34 0 00.15-.301v-.025c0-.257-.08-.456-.243-.597-.16-.141-.388-.212-.683-.212-.312 0-.56.07-.744.208a.953.953 0 00-.366.512l-1.601-.13a2.17 2.17 0 01.48-.984c.238-.279.546-.493.922-.642.38-.152.819-.228 1.317-.228.347 0 .679.041.996.122.32.082.603.208.85.378.249.171.445.39.589.659.143.265.215.584.215.955v4.21H65.72v-.865h-.049c-.1.195-.234.367-.402.516a1.85 1.85 0 01-.606.346 2.504 2.504 0 01-.817.122zm.496-1.194c.255 0 .48-.05.675-.15.195-.104.348-.242.46-.415.11-.174.166-.37.166-.59v-.662a.927.927 0 01-.224.097 4.089 4.089 0 01-.313.078c-.116.021-.233.042-.35.06a98.15 98.15 0 00-.316.045c-.203.03-.38.078-.533.143a.852.852 0 00-.353.264.644.644 0 00-.126.406c0 .236.085.416.256.54.173.123.393.184.658.184zM73.9 8.083l-1.585.098a.82.82 0 00-.175-.366.928.928 0 00-.353-.264 1.201 1.201 0 00-.517-.102c-.268 0-.494.057-.678.17-.185.112-.277.26-.277.448 0 .149.06.275.179.378.12.103.324.185.614.248l1.13.227c.607.125 1.06.325 1.357.602.298.276.447.64.447 1.09a1.7 1.7 0 01-.361 1.076c-.239.31-.567.55-.984.724-.415.17-.893.256-1.435.256-.826 0-1.485-.172-1.975-.516a2.011 2.011 0 01-.858-1.415l1.703-.09a.875.875 0 00.374.578c.198.13.451.195.76.195.304 0 .548-.058.732-.175.187-.119.282-.272.284-.46a.478.478 0 00-.199-.385c-.13-.103-.33-.182-.601-.236L70.4 9.949c-.61-.122-1.064-.334-1.362-.634-.295-.301-.443-.685-.443-1.15 0-.402.108-.747.325-1.037.22-.29.527-.514.923-.67.398-.158.864-.237 1.398-.237.788 0 1.409.167 1.862.5.455.334.72.787.796 1.362zm2.802 2.666l.004-2.077h.252l2-2.37h1.987l-2.687 3.139h-.41L76.7 10.749zm-1.57 1.797V4.222h1.732v8.324h-1.731zm3.903 0l-1.837-2.72 1.154-1.223 2.711 3.943h-2.028z" fill="#fff"/><path d="M27.472 8.798H81.1v.78H27.472v-.78z" fill="#fff"/></svg>